<?xml version="1.0" encoding="UTF-8" standalone="no"?>
<!-- Created with Inkscape (http://www.inkscape.org/) -->

<svg
   version="1.1"
   id="svg2"
   width="704.284"
   height="686.58356"
   viewBox="0 0 704.28398 686.58354"
   sodipodi:docname="شعار_الأسس.svg"
   inkscape:version="1.2 (dc2aedaf03, 2022-05-15)"
   xmlns:inkscape="http://www.inkscape.org/namespaces/inkscape"
   xmlns:sodipodi="http://sodipodi.sourceforge.net/DTD/sodipodi-0.dtd"
   xmlns="http://www.w3.org/2000/svg"
   xmlns:svg="http://www.w3.org/2000/svg">
  <defs
     id="defs6">
    <clipPath
       clipPathUnits="userSpaceOnUse"
       id="clipPath20">
      <path
         d="M 0,2000 H 2000 V 0 H 0 Z"
         id="path18" />
    </clipPath>
  </defs>
  <sodipodi:namedview
     id="namedview4"
     pagecolor="#ffffff"
     bordercolor="#000000"
     borderopacity="0.25"
     inkscape:showpageshadow="2"
     inkscape:pageopacity="0.0"
     inkscape:pagecheckerboard="0"
     inkscape:deskcolor="#d1d1d1"
     showgrid="false"
     inkscape:zoom="0.62087571"
     inkscape:cx="497.68415"
     inkscape:cy="507.34792"
     inkscape:window-width="1846"
     inkscape:window-height="1016"
     inkscape:window-x="0"
     inkscape:window-y="27"
     inkscape:window-maximized="1"
     inkscape:current-layer="g10" />
  <g
     id="g10"
     inkscape:groupmode="layer"
     inkscape:label="Page 1"
     transform="matrix(0.5,0,0,-0.5,-197.04422,765.23618)">
    <g
       id="g14"
       style="display:inline"
       transform="matrix(2.74964,0,0,2.7143939,-1651.0438,-1867.4106)"
       sodipodi:insensitive="true"
       inkscape:export-filename="g14.png"
       inkscape:export-xdpi="12"
       inkscape:export-ydpi="12">
      <g
         id="g16"
         clip-path="url(#clipPath20)"
         style="display:inline">
        <g
           id="g22"
           transform="translate(1160.2273,729)"
           style="display:inline">
          <ellipse
             style="display:none;fill:#cccccc;fill-opacity:1;stroke-width:0.971633;stroke-dasharray:none"
             id="path1001"
             cx="1000.2153"
             cy="-997.4198"
             transform="matrix(1,0,0,-1,-1160.2273,-729)"
             rx="256.52234"
             ry="253.35692" />
          <ellipse
             style="display:none;fill:#cccccc;fill-opacity:1;stroke-width:1.10202;stroke-dasharray:none"
             id="path1001-3"
             cx="-159.00194"
             cy="-271.40332"
             transform="scale(1,-1)"
             rx="290.94717"
             ry="287.35696"
             inkscape:label="path1001-3" />
          <path
             d="M 1.4547359,2.5082815e-8 H -319.00026 C -380.17826,2.5082815e-8 -429.77226,49.595 -429.77226,110.773 v 320.454 c 0,61.178 49.594,110.773 110.772,110.773 H 1.4547359 C 62.632736,542 112.22774,492.405 112.22774,431.227 V 110.773 C 112.22774,49.595 62.632736,2.5082815e-8 1.4547359,2.5082815e-8"
             style="display:none;fill:#cccccc;fill-opacity:1;fill-rule:nonzero;stroke:none"
             id="path24" />
        </g>
        <g
           id="g26"
           transform="translate(1082.6672,807.2024)"
           style="display:inline">
          <path
             d="M 0,0 C -0.034,-0.03 -0.067,-0.063 -0.101,-0.093 -0.006,-0.01 0.012,0.008 0,0"
             style="fill:#1a1a1a;fill-opacity:1;fill-rule:nonzero;stroke:none"
             id="path28" />
        </g>
        <g
           id="g30"
           transform="translate(1020.1971,875.9207)"
           style="display:inline">
          <path
             id="path32"
             style="display:inline;fill:#333333;fill-opacity:1;fill-rule:nonzero;stroke:none"
             d="m -64.571836,315.96479 c -26.947815,0.0391 -52.973254,-5.49421 -77.928224,-18.10107 -14.01799,-7.082 -29.79975,-16.9217 -41.67774,-27.20069 -15.47798,-13.58065 -17.5765,-15.75506 -32.92236,-35.36719 -9.46899,-12.75798 -17.42651,-27.88797 -22.6875,-43.00195 -0.908,-2.61 -1.71404,-5.26332 -2.43604,-7.94531 -9.03697,-26.72141 -11.58424,-54.47522 -8.77002,-81.81299 2.44251,-17.173872 13.20085,-40.096079 28.31104,-51.193364 7.96338,-5.848498 25.0476,-15.687543 42.92432,-16.982282 16.89039,-0.120241 34.69154,13.296642 44.36279,30.915876 9.69283,16.888038 12.63155,28.889228 11.3291,39.85401 5.5698,-3.59862 20.37907,-14.24392 21.40723,-28.136724 3.768495,5.77449 4.960862,6.94147 8.159181,13.227539 11.787289,20.152575 7.486935,40.695865 4.983398,60.667975 12.489988,-7.744 23.667096,-9.09436 32.663087,-21.04834 8.484991,-11.27599 13.24799,-24.49682 14.687989,-38.466803 0.097,-0.936999 6.489277,4.472313 6.634277,4.570313 4.571996,4.044996 8.837137,8.68011 12.911133,13.2041 2.039998,2.266 4.083526,4.55588 6.061524,6.90088 2.562997,2.815 3.840682,4.75844 5.72168,7.79443 1.3009982,1.658 6.3541155,13.6344 7.4472655,15.63135 6.6279783,17.88175 10.3184003,35.89082 -1.7651368,57.646 -6.8947877,12.41337 -14.1112477,26.45353 -19.5732427,39.70752 -6.813993,16.53398 -4.411113,34.15912 3.525879,49.8501 1.566998,3.097 -3.99632,-0.96377 -3.27832,-0.61377 -3.770997,-1.838 -8.706136,-8.02775 -11.411133,-10.86475 -7.220993,-7.57599 -15.490908,-15.80084 -20.274903,-25.25683 -7.131993,-14.09899 -10.302613,-30.4881 -5.932618,-45.95508 1.954998,-6.921 5.296348,-13.16247 9.152344,-19.12647 -18.637981,13.14199 -39.495217,33.10218 -25.636231,55.16016 5.522995,8.79199 -8.031888,-3.66361 -8.983887,-4.59961 -2.853997,-2.808 -5.793819,-5.28209 -8.611816,-8.28809 -2.830998,-2.44999 -5.30177,-5.19234 -5.75977,-5.67334 -6.70199,-7.02999 -16.7529,-15.85531 -20.2749,-25.2583 -4.07199,-10.86999 -4.29084,-21.68999 -2.86084,-32.47998 -6.82899,6.362 -12.42027,13.55204 -16.17627,22.95703 -5.74299,14.38499 -6.19431,29.81032 -1.29932,44.48731 0.97,2.909 -3.13632,-0.54477 -3.27832,-0.61377 -3.77099,-1.838 -9.85264,-8.01503 -12.55664,-10.85303 -6.49799,-6.81599 -16.02293,-15.96056 -19.12793,-25.26855 -8.35999,-25.06498 -4.07179,-34.12571 0.38233,-52.88965 3.76869,-15.87642 7.78319,-20.69747 7.62451,-31.79883 -3.07259,-24.28537 -10.29944,-35.21837 -32.46387,-11.012697 -18.97498,30.044977 -7.84867,101.518397 14.53125,136.819337 8.54194,12.6344 17.01047,22.84817 28.4458,32.10791 36.81671,29.81229 78.922946,47.11855 126.197899,41.87556 23.7729753,-2.532 46.975951,-9.09445 68.142929,-20.65144 -20.638979,12.46699 -43.9508306,21.33843 -68.003806,24.96742 -10.818551,1.63182 -21.371321,2.10078 -31.916118,2.11608 z M 73.385687,128.3974 c -0.869905,0.1808 -3.86441,-2.03789 -3.32666,-1.77539 C 66.288031,124.78402 61.354356,118.5928 58.649359,115.7558 51.427366,108.17981 43.158451,99.955954 38.374456,90.498966 31.242463,76.40098 26.388737,65.471344 30.758733,50.003359 32.971731,42.168367 36.960351,35.203742 41.462346,28.528749 31.213357,34.903743 23.831221,37.294712 16.217229,46.780703 7.1122377,58.122691 1.2519088,75.616612 9.7309003,88.972598 15.300895,97.745588 1.6854772,85.294523 0.74847818,84.371524 -2.2115189,81.461527 -4.6322161,79.432415 -7.5352134,76.313418 -10.58821,73.692421 -13.984249,70.124828 -14.471249,69.608828 -21.198242,62.546835 -31.19469,53.751334 -34.744687,44.337343 -40.082681,30.252357 -42.060903,20.643266 -39.443906,6.6732799 c -9.067991,7.6369921 -9.250716,4.2737231 -14.053711,15.9287111 -6.497993,15.768984 -7.09917,32.974229 -1.680176,49.116212 0.976999,2.912997 -3.147785,-0.548304 -3.279785,-0.612304 -3.770996,-1.837998 -8.704671,-8.028214 -11.409668,-10.866212 -6.508994,-6.826993 -17.148906,-15.942845 -20.274903,-25.256836 -9.31999,-27.765972 -2.397945,-36.3022322 5.400879,-52.681642 4.51609,-9.847389 4.47803,-9.229393 6.474609,-17.44336 0.798576,-5.543306 -0.442821,-14.328556 -11.729004,-12.914063 -22.100145,8.74247 -32.216365,16.085851 -49.460455,31.668458 -15.16196,16.34336121 -21.74078,20.0719847 -37.09239,41.576196 -13.28254,2.384896 -24.32761,5.903929 -34.03268,11.325768 -10.55589,5.897161 -23.11642,15.546072 -33.19813,30.289694 17.88378,-64.2621655 63.83402,-123.038237 123.04098,-154.57789 25.192712,-14.127662 42.012713,-18.342422 59.170899,-18.339842 14.253465,1.60437 24.21995,7.737351 28.830884,18.102913 4.391059,11.422335 4.544689,21.061201 1.295093,31.1715 10.006887,-8.884867 25.5186985,-14.978351 25.8398444,-30.294434 2.7929969,5.855994 4.0110264,6.919445 6.9829103,17.563477 5.5815296,16.664797 7.2297424,28.009962 4.6875001,40.798829 C 4.3845386,-19.830357 0.17394283,-7.8655405 -5.6995074e-5,-5.484145e-4 0.53094247,-0.33754808 1.0636936,-0.67550189 1.593693,-1.0025016 15.682679,-9.7164929 29.828454,-18.15461 39.937444,-31.623596 c 9.174991,-12.222988 14.371951,-26.517032 15.89795,-41.666017 0.094,-0.934999 6.493277,4.477778 6.634277,4.571778 4.571996,4.044996 8.837137,8.680106 12.911133,13.204102 3.957996,4.394995 8.572008,8.166153 12.104004,12.952148 1.669217,4.03607 3.868689,8.470052 4.804688,12.873048 0.886999,4.175995 2.037671,6.557011 2.950195,12.00293 2.154998,8.3949912 1.630158,15.9346697 1.22754,23.973633 -0.938902,11.444238 -5.621717,25.931647 -11.961915,37.694825 -7.658992,11.957988 -9.230388,20.148846 -14.692383,33.402833 -6.814993,16.533983 -4.412113,34.159116 3.525879,49.850096 0.39175,0.77425 0.336843,1.10136 0.04687,1.16162 z"
             sodipodi:nodetypes="sccccccscccccccccccccsccccccccccccccscccscccscccssccscccccccccccccccccccscccccccccccscsccccccsss" />
        </g>
        <g
           id="g34"
           transform="translate(986.0051,965.5833)"
           style="display:inline">
          <path
             d="M 0,0 C -0.034,-0.03 -0.066,-0.063 -0.1,-0.093 -0.006,-0.009 0.013,0.009 0,0"
             style="fill:#1a1a1a;fill-opacity:1;fill-rule:nonzero;stroke:none"
             id="path36" />
        </g>
        <g
           id="g38"
           transform="translate(1064.2023,1064.1084)"
           style="display:inline">
          <path
             d="m -7.0084539,-8.6101723 c -0.444,0.936 -0.767,1.912 -0.998,2.91 1.249,0.456 2.623,0.635 4.463,0.231 7.029,-1.544 10.664,-8.4109997 13.5939999,-14.3149997 -7.1769999,0.966 -13.6409999,3.973 -17.0589999,11.1739997 M -24.287454,-65.783172 c -0.557,-1.333 -3.762,-9.519 -0.497,-5.375 10.754,13.652 26.0670001,23.013 42.88,27.113 3.102,0.756 6.2,9.43 7.462,11.998 1.458,2.967 2.911,5.987 4.014,9.104 0.128,0.361 1.344,4.201 0.924,4.134 -6.032,-0.953 -13.364,-1.86 -20.105,-1.014 1.092,1.566 6.786,10.7699997 7.266,11.7469997 1.458,2.967 2.911,5.987 4.014,9.105 0.371,1.046 1.459,3.053 0.924,4.134 -3.829,7.7320003 -11.071,18.9590003 -21.2429999,13.4530003 -4.542,-2.459 -7.39,-7.545 -9.872,-11.8880003 -4.0150001,-7.02399997 -7.6820001,-14.456 -10.3310001,-22.1149997 -3.198,-9.252 -3.24,-19.1 5.359,-25.355 1.07,-0.779 2.181,-1.433 3.32,-1.997 -1.799,-1.915 -3.532,-3.91 -5.179,-6.002 -3.88,-4.925 -6.533,-11.295 -8.936,-17.042"
             style="fill:#666666;fill-opacity:1;fill-rule:nonzero;stroke:none"
             id="path40" />
        </g>
        <g
           id="g42"
           transform="translate(1126.7926,1041.2772)"
           style="display:inline">
          <path
             d="M 0,0 C 0.041,0.036 0.08,0.076 0.12,0.112 0.039,0.04 0.005,0.008 0,0"
             style="fill:#1a1a1a;fill-opacity:1;fill-rule:nonzero;stroke:none"
             id="path44" />
        </g>
        <g
           id="g46"
           transform="translate(1156.8949,837.5341)"
           style="display:inline">
          <path
             d="m 0,0 c 7.199,7.552 15.555,15.794 20.275,25.257 23.979,48.079 30.195,101.422 20.426,154.061 -8.4,45.259 -33.76,93.951 -75.347,117.128 -26.212,14.608 -57.155,17.711 -84.003,2.927 -8.996,-4.954 -16.457,-15.102 -23.003,-22.8 -3.016,-3.546 -8.18,-8.093 -9.615,-12.482 -0.165,-0.503 -2.994,-4.826 -0.269,-3.325 61.214,33.708 121.506,-25.468 144.488,-78.26 8.259,-18.972 13.491,-39.135 15.911,-59.687 -5.241,8.266 -11.228,15.923 -16.908,24.296 -12.056,17.774 -15.998,40.069 -15.403,61.217 0.025,0.876 -6.72,-4.694 -6.654,-4.589 -4.565,-4.04 -8.823,-8.668 -12.89,-13.185 -4.448,-4.939 -15.434,-14.041 -15.638,-21.292 -0.51,-18.135 2.269,-36.993 10.665,-53.26 6.807,-13.186 17.808,-23.546 24.749,-36.711 5.556,-10.54 9.868,-21.975 12.476,-33.597 1.886,-8.401 2.978,-17.12 2.489,-25.736 C -8.54,14.875 -9.328,9.857 -10.738,4.959 -12.589,-1.465 -11.890704,0.69750264 -16.166371,-7.9754135 -22.793098,-16.059052 -27.541,-19.47 -25.296,-21.491 c 1.178,-1.061 6.808624,3.557836 11.666624,8.574836 1.1936,1.072626 1.82499,1.671688 2.218376,2.051164 C -7.6960024,-7.7062854 -2.705,-2.837 0,0"
             style="fill:#333333;fill-opacity:1;fill-rule:nonzero;stroke:none"
             id="path48"
             sodipodi:nodetypes="ccccccccscccccscccccccccc" />
        </g>
        <g
           id="g50"
           transform="translate(1249.1584,944.5074)"
           style="display:inline">
          <path
             style="display:inline;fill:#333333;fill-opacity:1;fill-rule:nonzero;stroke:none;stroke-width:0.99975;stroke-dasharray:none"
             d="m -135.95989,233.7404 c -5.49808,0.0116 -10.50653,-0.47561 -14.94727,-1.49854 4.00591,-2.30633 7.9539,-4.72585 11.83741,-7.25977 69.937927,-45.63395 112.695123,-126.252498 110.953125,-209.774414 -0.551,-26.416974 -5.585205,-52.722109 -14.575196,-77.559084 -3.836996,-10.59899 -11.631144,-27.257696 -21.966741,-41.331862 -25.404885,-35.21281 -66.830598,-66.01628 -114.628058,-84.86655 -12.74008,-4.79168 -25.06187,-7.27147 -39.08077,-10.0394 14.01623,1.36959 25.05825,3.98627 37.62472,7.39389 31.02173,6.47649 74.23487,32.11221 86.571197,41.41954 17.881253,14.27527 49.955705,42.28909 75.073891,89.056218 12.3834972,25.627046 15.7593831,41.140532 18.68115259,51.2783212 L 2.3491957,2.5426362 c 8.3175053,44.1610958 5.143724,91.0755028 -8.843262,134.3144538 -9.0242447,27.89869 -25.2176367,51.23008 -46.7628687,66.26601 -19.516443,13.05047 -58.812945,30.56688 -82.702955,30.6173 z"
             id="path23420"
             sodipodi:nodetypes="sccscccccccccccs" />
          <path
             style="display:inline;fill:#666666;fill-opacity:1;fill-rule:nonzero;stroke:none;stroke-width:0.99975;stroke-dasharray:none"
             d="m -249.57317,307.29167 c -44.12833,0.18436 -87.75174,-9.21501 -125.26319,-31.80616 -22.47989,-13.41561 -25.19932,-15.73293 -34.01221,-22.40625 -49.63393,-39.90556 -74.85382,-86.53515 -89.5708,-140.87109 -0.681,-2.495 -1.90654,-6.43234 -2.35254,-8.94434 -3.391,-14.882982 -4.03666,-29.741412 -4.60466,-44.977396 1.809,15.844984 4.00827,30.988629 8.72526,46.197606 2.744,7.383 5.74518,16.16701 9.18018,23.25001 26.30797,59.83294 78.50198,106.79324 139.94092,127.80322 60.29946,18.8344 127.98401,12.08123 185.46534,-17.25439 24.09803,10.92333 75.185642,-4.26661 114.728157,-28.51697 -40.747222,48.53262 -98.867807,85.93531 -158.147597,94.28113 -14.61398,2.0575 -29.37942,3.18317 -44.08886,3.24463 z"
             id="path52"
             sodipodi:nodetypes="sccccccccccss" />
        </g>
      </g>
    </g>
  </g>
</svg>
